<svg xmlns="http://www.w3.org/2000/svg" viewBox="0 0 102.38 102.37"><g id="acc5ae27-ad5b-45ea-8e70-ef15ad4df182" data-name="Layer 2"><g id="b8a8b07a-b57f-4e80-83dd-9d977c2f7eef" data-name="Front"><g id="ef38963d-10be-46eb-bd7e-6fa4d4c8a800" data-name="QR"><path d="M33.42,8.39H31.35V2.11h4.14v2H37.6V0h4.22V2.08l0,0H39.76v6.3H50.11v-2h2.11v2h2.09V4.19H48.08V2.1h2V0h2.11V2h2.12V0h4.19V4.15h2V2.08h4.23c0,1.4,0,2.81,0,4.22H62.69V8.35h2.06V6.27l2.12,0,0,0V10.5l0,0H58.58v2h-2.1v4.15h2.1v2.13h2v2.07h2V18.8H60.54V16.68h-2V12.49h2v2.09h2.09V16.7h2.1v0c0,2.11,0,4.22,0,6.33H60.55v2.11h-2V23h-4.2v2.08H52.21v2.06h-6.3V25.09H39.72V18.78h-2.1v0c0-.7,0-1.41,0-2.12h2.1v-2.1H41.8V10.52H35.56v4.06h2.07V16.7H33.4V12.53H31.32V27.22l-6.22,0,0,0V25.1H23V20.87h2.07V18.78H23V16.7l4.22,0v2.08h2V16.7h-2V14.58h2V12.52h-2V14.6H25.15V6.27h2V8.37h2v2.09h4.23V8.38h4.18V6.32H33.42Zm20.89,8.28V10.53H48.06v6.14Zm-6.24,2.15V23h2V18.82ZM45.9,14.56v-4h-2v4Zm-2.11,6.32V16.73H41.86v4.15Zm12.64-2H54.37v2h2.06ZM27.26,23v2.06h1.91V23ZM60.53,6.32h-2v2h2Z" style="fill:#fff"/><path d="M100.29,54.33h2.08v8.29h-2v6.31H98.21V71H96.12V69H94l0,0V66.83H89.88V64.74H87.77V62.67h-2.1v2.1H83.56v4.15h-4.2V66.85h2.08V64.79H79.38v2.07H77.26V62.64h4.18V60.52H79.36v-2h-2.1V56.45h-2.1V52.28h2.12v2h2.11v-2.1h2.08v-8.4h2.14V45.9H85.7v-2h2.11v2.07H94v4.21H96.1V52.2h2.11V45.92h2.08V48h2.08v4.19h-2.06v2.14H94v4.17H91.87v-2h-2v6.17h2v2.11H96.1v2h2.07V62.64H94V60.53h4.13v-2h-2V56.43h4.16Zm-8.41-6.26H85.72V54.3h6.16ZM81.52,54.35v4.21H83.6v2h2.06V56.43h-2.1V54.35Z" style="fill:#fff"/><path d="M96.1,94H89.88V96.1l0,0H87.8V94H81.52V91.89h2V87.83H81.49v2H73.2v2h6.16V96.1l0,0h-2.1V94h-6.2v2H69V98.2H66.85V96.12H64.79v2.07h2.08v2.09H64.78v2.07H62.67V98.18H60.54V94h4.23v-2h2.09v2h2V89.87H64.74V87.79h-2.1V85.67h4.24v2.09H69v-2h2.11v2h4.1v-2h2.09v2H79.4V85.67h4.17V81.46h2.12v2.08H96.1V81.48h6.28V98.16h-2V94H98.21V89.87h2.05V85.71H94v4.2h2.07V94Zm-4.24-8.26H85.73v6.13h6.13Z" style="fill:#fff"/><path d="M6.29,56.44H4.19v2.08H2.1V56.45H0V52.26H2.05V50.14H0V48.05H2.07V45.94l0,0H4.16v2H6.27V37.67h4.18v2h-2v4.1h2.05v2.08H16.7V43.83h2.12v-2l0,0,2.12,0v2H23v-2h2.12V48H23V46H18.84v6.27h2.07v2.12H18.78v2.12h-6.3v2.07h-2v-2.1H8.4V52.28H4.21v2.07H6.28v2.1Zm4.23-2.14h6.13V48.06H10.52Z" style="fill:#fff"/><path d="M48,96.08H46V91.89H43.86V87.81h2V81.46H43.82V77.31h2.11v2.07h2.11v2.1h4.18v2.1h6.33v2.1h2v2.12H56.49v2.13h2v2H56.46V94H54.38v2.09h2.08v4.19h2.11V98.2h2v4.16H50.15V98.19h0l2.12,0v2.08h2.06V98.2H52.23V96.08h-2.1l0,0V94H48v2.06Zm6.29-10.37H48.06v6.14h6.27Z" style="fill:#fff"/><path d="M18.79,89.9l2.14,0V94H18.84v2.11h2.07v2.08H23v2.07h2.06V98.2H23V96.07h2.07V94H23V89.88H20.91V87.8h4.21V85.67l0,0h2.13v2h2V85.67h2.1V83.58h2.08v2.12h2.12l0,0v2.1h2.08v2.09H35.51v2l0,0H31.3V94H27.25V98.2H29.2v2.1h-2v2.07H16.73V91.91h2.08v-2Zm8.45,0v1.94h1.93V89.91Z" style="fill:#fff"/><path d="M43.82,81.46v2.12h-4.1V79.41H35.56V81.5h2.08v2.07h2.1l0,2.12v0H35.51l0,0V83.57H33.42V81.45H31.34V79.36h2.07v-2.1h4.18V75.2H33.42v2.07H31.29V71.09h-4v2.1h1.93v2h-2v2.1l0,0h-2.1V73.16H23V69h8.33V64.78h2.09V69h2.13v4.16h2.09V69h2.1v4.24h4v2h-4v2.12h2.07v4.19h2Z" style="fill:#fff"/><path d="M18.81,39.73V37.64h-2.1V33.42H14.58V31.34H10.53v2.07H14.6v2.07H8.41V31.34H2.1V29.21H0v-2H2.09V25.1l0,0H4.2V27.2H6.29v2H16.72v2.05H23V29.19H18.81v-2l0,0h2.13v-2.1H23v2.1h2.12l0,0v4.1h2.12v4.22H25.1V33.45H23v2.06h2.08v2.13H20.91v2.09h-2.1Z" style="fill:#fff"/><path d="M0,14.55V0H14.54V14.55ZM2.12,2.1V12.44H12.46V2.1Z" style="fill:#fff"/><path d="M102.38,0V14.56H87.83V0ZM89.93,2.1V12.44h10.34V2.1Z" style="fill:#fff"/><path d="M14.56,87.83v14.54H0V87.83Zm-2.11,12.44V89.93H2.11v10.34Z" style="fill:#fff"/><path d="M2.08,75.15H0V69H2.06V66.89h4.2v4.16H8.37v2.11h4.1v2h2.09v2.12h-2v2.11h2v2.07H10.5V75.19H8.41v4.14H6.3V73.21H2.07v1.94Z" style="fill:#fff"/><path d="M75.15,18.79v2.07h4.21V18.8h4.21v6.33h2.11V27.2H83.55v4.08H81.46V27.22h-2.1V23h-8.3v-2.1H69V18.78h2.14V16.7h2.09l0,0V18.8h2Z" style="fill:#fff"/><path d="M100.29,27.22h2.08v8.29H98.22V37.6h2.07v2.13h-2.1v6.21H96.07V37.63H91.88c0-1.41,0-2.82,0-4.23v0l2.12,0v2.08h2.09V33.4h2.13V31.28h2.09V27.2Z" style="fill:#fff"/><path d="M10.49,23l2,0v2.08h2.06V23H12.48v-2.1h2.08v-2.1h-2V16.7h6.28l0,0v2.14h2.07V23H16.73v2.1h2.06v2.1l0,0H10.5V23Z" style="fill:#fff"/><path d="M20.91,81.48v-6.3H16.7v-2H12.46v0l0-2.11,0,0h4.24V66.85H23V69H20.87v2.13h-2v2.09H23v4.11h2.1v2.13H23v2.07H20.89Z" style="fill:#fff"/><path d="M69,2.08V0h8.28V2h6.31V0h2.09V6.27H83.6V8.35H81.5V4.17H75.16V2.11h-2V4.19l0,0H71.05V2.07H69Z" style="fill:#fff"/><path d="M96.09,18.8h2.09V16.72h2.1v2.07h2.09v6.29h-2.08v2.14l0,0H98.17v2H96.08v-2H94l0,0,0-2.12h2.14V23h2V20.88H96.1V18.79Z" style="fill:#fff"/><path d="M2.07,75.17H4.16v6.28H8.34v2.11h-2v2.07H0v-2H2V79.38H0V77.29H2.08V75.17Z" style="fill:#fff"/><path d="M87.78,20.91H89.9l0,0V25.1h2v2.12H94l0,0v2h-2.1V33.4l-2,0V29.19H85.69v-2H87.8V20.89Z" style="fill:#fff"/><path d="M96.09,75.17h2.1v-2h2.09V71.1h2.1v8.26H96.09V75.17Z" style="fill:#fff"/><path d="M8.37,60.59V64.7H4.2v-2H2.1v2H0V60.59Z" style="fill:#fff"/><path d="M2.09,20.89H0V16.72H10.46v2.05H8.38v2.14l0,0H6.27V18.83H2.07v2.08Z" style="fill:#fff"/><path d="M79.36,96.1h4.2v2.09h2.1v2.09H83.6v2.07H77.31v-2h4.14V98.22H79.38V96.08Z" style="fill:#fff"/><path d="M43.83,98.18h-2v2.08H39.76V98.21h-4.2v-2.1h2V94h4.22v2h2V98.2Z" style="fill:#fff"/><path d="M73.16,10.48V14.6l0,0H71V12.51H69v4.17h-4.2v-2.1h2.12v-4.1l0,0h6.33Z" style="fill:#fff"/><path d="M75.16,4.17V6.26h2.07v4.22H73.16l0,0V4.17l0,0h2Z" style="fill:#fff"/><path d="M2.09,41.83V39.74H0V37.65H2.07v-2.1H4.14v6.27h-2Z" style="fill:#fff"/><path d="M96.08,96.08v2.1h2.08v2.09H96.1v2.1H94V96.1H96.1Z" style="fill:#fff"/><path d="M18.81,16.7V14.58l0,0h2.09V12.52H23v4.16H18.79Z" style="fill:#fff"/><path d="M25.12,85.67H20.91v-2.1H23v-2.1h2.1v4.21Z" style="fill:#fff"/><path d="M83.59,18.8c0-.7,0-1.4,0-2.1l0,0h4.23v4.19l0,0H85.66v-2.1H83.59Z" style="fill:#fff"/><path d="M39.72,85.69h2.07v6.15H39.73V85.69Z" style="fill:#fff"/><path d="M100.29,39.73h2.08v6.19h-2.06V39.72Z" style="fill:#fff"/><path d="M73.18,100.3V98.2H71.09V96.08h4v4.21H73.18Z" style="fill:#fff"/><path d="M89.9,20.91V16.74h2V18.8H94v2.1h-4.1Z" style="fill:#fff"/><path d="M18.81,89.88H16.74V85.72h2.05V89.9Z" style="fill:#fff"/><path d="M23,2.05V6.24h-2V2.06h2Z" style="fill:#fff"/><path d="M66.85,2.08H69V6.29l0,0H66.85l0,0V2.07Z" style="fill:#fff"/><path d="M73.16,100.29v2.07H69V100.3h4.16Z" style="fill:#fff"/><path d="M31.31,98.2h2.07v4.17H31.32V98.19Z" style="fill:#fff"/><path d="M94,69v4.22h-2V69H94Z" style="fill:#fff"/><path d="M41.82,2.08h4.06V4.14h-4V2.06Z" style="fill:#fff"/><path d="M81.48,14.58H79.41V10.52h2v4.07Z" style="fill:#fff"/><path d="M2.07,41.82c0,1.38,0,2.76,0,4.14l0,0H0V41.83H2.07Z" style="fill:#fff"/><path d="M18.81,14.58H16.74V10.53h2.05V14.6Z" style="fill:#fff"/><path d="M16.7,43.81H12.53v-2H16.7v2Z" style="fill:#fff"/><path d="M25.14,2H23V0h2.13V2.06Z" style="fill:#fff"/><path d="M64.76,2.08V0h2.09V2.08H64.76Z" style="fill:#fff"/><path d="M16.72,4.14v-2h2v2Z" style="fill:#fff"/><path d="M27.22,4.17H25.13c0-.72,0-1.42,0-2.13l0,0H27.2V4.18Z" style="fill:#fff"/><path d="M35.57,100.32h2v2.05h-2Z" style="fill:#fff"/><path d="M87.82,100.33h2v2h-2Z" style="fill:#fff"/><path d="M16.72,8.35v-2h2v2Z" style="fill:#fff"/><path d="M75.17,14.59V12.52h2.07v2.06H75.17Z" style="fill:#fff"/><path d="M83.61,14.61V12.53h2V14.6h-2Z" style="fill:#fff"/><path d="M81.46,14.59l2.15,0h0l0,2.12v0H81.48V14.58Z" style="fill:#fff"/><path d="M75.16,16.7h2.07v2.09H75.17V16.7Z" style="fill:#fff"/><path d="M94,18.8V16.73h2.09V18.8H94Z" style="fill:#fff"/><path d="M2.09,23V20.89l0,0H4.14V23h-2Z" style="fill:#fff"/><path d="M8.38,56.44v2.07H6.29V56.44H8.38Z" style="fill:#fff"/><path d="M12.5,64.76V62.64h2.1v2.1H12.48Z" style="fill:#fff"/><path d="M16.7,41.84V39.73h2.09v2.12l0,0H16.69Z" style="fill:#fff"/><path d="M100.33,102.36v-2h2v2Z" style="fill:#fff"/><path d="M14.56,39.7h-2v-2h2Z" style="fill:#fff"/><path d="M10.5,69H8.43V66.86h2.06V69Z" style="fill:#fff"/><path d="M96.09,79.36v2.1H94V79.38H96.1Z" style="fill:#fff"/><path d="M20.91,83.57H18.84V81.48h2.07l0,0v2.12Z" style="fill:#fff"/><path d="M31.3,94h2.07v2.09H31.3l0,0V94Z" style="fill:#fff"/><path d="M12.52,85.64v-2h2v2Z" style="fill:#fff"/><path d="M35.51,91.89H37.6V94H35.53V91.87Z" style="fill:#fff"/><path d="M96.1,96.1V94h2.09v2.1H96.08Z" style="fill:#fff"/><path d="M31.32,98.19h-2.1V96.1h2.1l0,0c0,.71,0,1.42,0,2.12Z" style="fill:#fff"/><path d="M50.15,98.19H48V96.1h2.12l0,0V98.2Z" style="fill:#fff"/><path d="M2.09,25.1H0V23H2.07v2.12Z" style="fill:#fff"/><path d="M43.81,98.2h2.08v2.06H43.83V98.18Z" style="fill:#fff"/><path d="M8.38,20.91h2.11V23H8.38l0-2.12Z" style="fill:#fff"/><path d="M27.2,4.18h2V6.26h-2c0-.7,0-1.4,0-2.1Z" style="fill:#fff"/><path d="M12.5,71.05h-2V69l2,0v2.12Z" style="fill:#fff"/><path d="M10.5,66.86v-2.1h2l0,0v2.12h-2Z" style="fill:#fff"/><path d="M12.5,60.55v-2H14.6v2l-2.12,0Z" style="fill:#fff"/><path d="M12.5,62.64h-2V60.55h2l0,0v2.12Z" style="fill:#fff"/><path d="M75.16,14.58v2.1h-2l0,0V14.58l0,0h2Z" style="fill:#fff"/><path d="M89.88,96.1h2v2.05H89.9V96.08Z" style="fill:#fff"/><path d="M94,73.17h2.11v2H94l0,0v-2Z" style="fill:#fff"/><path d="M89.9,33.4v4.23H83.6V39.7H79.36v2.14l0,0H77.26l0,0V39.72h-4.1l0-2.12h8.28V35.5H75.15V33.42h-2V31.34H69v2.08H62.62v2.12H58.53v2.09H54.38v4.16h2.1V39.7h4.09V37.65h4.19v4.17h2.11v4.12H60.59V48H69l0,0v2.1H62.67v2.09H60.54v2.12h-2v-2H56.47v2h2.11c0,.72,0,1.43,0,2.14H56.49v2.09h2.07v4.11H56.43v2.09H54.34V62.66H52.26v-2.1H50.15v-2H46V56.48h-2.1v2.08h-2v-2.1H39.75V52.23H37.63V46H35.54v4.17H33.41V48H31.35V46h2.08V43.81l0,0h4.18v-2H35.53V39.72H37.6V37.64h2.14V35.51l0,0h2.1V37.6h4.06v6.2h-2v2.08h-2V41.82h2V39.76H41.84v2.08H39.76v8.29h2.06V54.3H45.9v-2h-2V50.14h2.05V46H58.54V43.82h4.08v-2H58.56v2h-6.3V39.76H50.15v2H48V35.51H50.1V33.45H48v2.08H43.86V29.24H48v2.08h4.24l0,0v4.18h4.23V33.4l0,0h2.12v-2.1h2V25.1h4.21V23h2.09V20.89H69V23h2.1v2.09H66.88v2.09H64.76v2H62.69v2.06h2.06V29.2h8.39V25.15h4.12v2.07l0,0H75.2v2h2.06v2.1h2.09v2.07h6.32v-2h2.09V33.4ZM48.06,54.3H54.3V48.06H48.06Zm8.42-6.25V50.1h2V48.05Z" style="fill:#fff"/><path d="M29.2,35.52v-4.2h-2V29.2h4.11v2.09h2.1v6.34H31.33V35.52Z" style="fill:#fff"/><path d="M54.34,25.1h4.22v6.2H56.44l0,0V27.23H54.34Z" style="fill:#fff"/><path d="M37.62,18.78V23H35.53l0,0V18.8h2.08Z" style="fill:#fff"/><path d="M33.43,39.73l0-2.12h2.1v2.12H33.43Z" style="fill:#fff"/><path d="M39.74,35.51h-2.1v-2.1h2.08v2.11Z" style="fill:#fff"/><path d="M54.34,31.32h2.12l0,0v2.12l0,0H54.35V31.32Z" style="fill:#fff"/><path d="M37.64,33.41H35.56V31.35h2.06v2.07Z" style="fill:#fff"/><path d="M52.25,31.32V29.25h2.09V31.3H52.23Z" style="fill:#fff"/><path d="M37.63,27.2h-2.1V25.1l0,0h2.1v2.1Z" style="fill:#fff"/><path d="M35.53,25.1H33.46V23h2.09l0,0c0,.7,0,1.41,0,2.11Z" style="fill:#fff"/><path d="M37.61,27.22h2.07v2h-2v-2Z" style="fill:#fff"/><path d="M31.3,29.21v-2h2.07v2Z" style="fill:#fff"/><path d="M69,6.29H71V8.35H69V6.27Z" style="fill:#fff"/><path d="M50.17,12.51h2v2h-2Z" style="fill:#fff"/><path d="M64.76,14.59H62.64V12.52h2.12Z" style="fill:#fff"/><path d="M39.74,14.59H37.62V12.52h2.12Z" style="fill:#fff"/><path d="M77.28,81.46H75.16v-2.1h-2l0,0V77.3H71.06v2.06H69V75.15H71v-2H69V66.89H64.73v2h-2V64.74h2.07v-2.1h2.11V60.53l0,0H69l0,0v2.14h2.13v2h2.11V62.65h2l0,4.22h-2v8.28h4v2.13h2.12v2.13h-2.1v2.09Z" style="fill:#fff"/><path d="M85.68,81.48V79.36H83.57l0,0V77.26H79.38V73.18H77.3V71.09h8.37V69h2.09v2.06h2.1v6.19h-2v2.11h4v2.13ZM81.5,75.12h6.25V73.19H81.5Z" style="fill:#fff"/><path d="M75.16,66.85h2.12v2.07H75.16Z" style="fill:#fff"/><path d="M94,75.15v2.07H91.92v-2H94Z" style="fill:#fff"/><path d="M75.17,56.44v2.1h2.11v4.11H75.17V60.53H69l0,0v-2H66.85l0,0V52.28h4.19v2h2.09v2.11Z" style="fill:#fff"/><path d="M62.64,56.46h2.1v2.1h2.13l0,0v2l0,0H64.75v2.12H60.54V58.54h2.12v-2.1Z" style="fill:#fff"/><path d="M79.36,43.81v2.08H73.18V41.82l0,0h4.12l0,0v2h2.12Z" style="fill:#fff"/><path d="M71.06,41.82V48H69l0,0c0-2.07,0-4.15,0-6.22l2.12,0Z" style="fill:#fff"/><path d="M60.54,54.35h2.1v2.11l0,0H60.54v-2.1Z" style="fill:#fff"/><path d="M73.18,41.82H71.06v-2.1h2.1v2.12Z" style="fill:#fff"/><path d="M75.12,50.11H73.2v-2h1.92Z" style="fill:#fff"/><path d="M79.36,41.84h2.12v2l-2.12,0,0,0v-2Z" style="fill:#fff"/><path d="M89.88,37.61h2v4.18H85.72v-2h4.16Z" style="fill:#fff"/><path d="M89.86,50.17v2h-2v-2Z" style="fill:#fff"/><path d="M60.54,87.78h2.12v2.07H60.54Z" style="fill:#fff"/><path d="M56.44,96.1V94h2.07V96.1Z" style="fill:#fff"/><path d="M60.54,85.69V83.58h-2V81.49h4.11V75.15l0,0,4.23,0V79.4H64.78v2h6.29V79.38h2.12l0,0v2.12h2v2.08H62.66v2.13Z" style="fill:#fff"/><path d="M81.47,81.46v2.08H77.28V81.46l0,0h4.22Z" style="fill:#fff"/><path d="M83.57,79.36l0,2.12-2.12,0V79.38h2.11Z" style="fill:#fff"/><path d="M87.81,89.84v-2h2v2Z" style="fill:#fff"/><path d="M31.32,60.53l-10.42,0v-2H23V56.47H20.9V54.33H23v-2.1h2.1V48h4.09v2.11h4.23v4.22H31.31V52.27H29.25v2.07h2.07v2.09h2.06v2.09H31.3v2Zm-4.1-4.09v2.07h2V56.45h-2V54.38H25.15v2.06Z" style="fill:#fff"/><path d="M33.43,43.81H31.35V39.73h2.06v4.11Z" style="fill:#fff"/><path d="M23,41.84H20.9V39.72H23Z" style="fill:#fff"/><path d="M27.25,43.85h1.92v2H27.25Z" style="fill:#fff"/><path d="M27.21,35.51h2v2.07h-2Z" style="fill:#fff"/><path d="M29.18,39.76v2H27.25v-2Z" style="fill:#fff"/><path d="M14.58,62.65V60.54h6.33v2.09H25.1v2.11h2.07v2.12H23V64.77H16.72V62.65Z" style="fill:#fff"/><path d="M14.56,52.21h-2v-2h2Z" style="fill:#fff"/><path d="M23,52.25H20.9V48H23Z" style="fill:#fff"/><path d="M48,75.15H46V71.08H48v-8.4h2.09v2.08h4.24v2.12H52.27V69h2.07v2.08H50.13v2.12H48v2Z" style="fill:#fff"/><path d="M58.54,73.16v2H52.26v2.07H48v-2h2.12v-2h4.2v-2.1l2.12,0v2.12h2.08Z" style="fill:#fff"/><path d="M39.74,66.86H35.56V62.64h2.07v2.09h2.11Z" style="fill:#fff"/><path d="M62.66,75.15H60.57v-2h-2V71.05h4.09v4.12Z" style="fill:#fff"/><path d="M43.85,64.72V60.59h2v4.13Z" style="fill:#fff"/><path d="M39.72,69V66.85h4.06V69Z" style="fill:#fff"/><path d="M37.62,62.65l0-2.11h2.1v2.11Z" style="fill:#fff"/><path d="M52.25,81.48V79.41h2.06v2.06H52.25Z" style="fill:#fff"/><path d="M39.72,60.55v-2h2.12v2Z" style="fill:#fff"/><path d="M52.21,87.82v2h-2v-2Z" style="fill:#fff"/><path d="M27.2,77.27h2v2.06h-2V77.25Z" style="fill:#fff"/><path d="M37.62,52.23V56.4H35.56V52.24h2.06Z" style="fill:#fff"/><path d="M31.3,60.55h2.07v2.06h-2V60.53Z" style="fill:#fff"/><path d="M37.64,60.54H35.56V58.59h2.06v2Z" style="fill:#fff"/><path d="M6.28,27.22V23H8.4v4.22Z" style="fill:#fff"/><path d="M10.45,10.46H4.21V4.22h6.24Z" style="fill:#fff"/><path d="M98.16,10.46H91.92V4.22h6.24Z" style="fill:#fff"/><path d="M4.21,98.15V91.91h6.24v6.24Z" style="fill:#fff"/><path d="M79.38,27.2v2h-2.1v-2l0,0Z" style="fill:#fff"/><path d="M96.1,33.42H94V31.35H96.1Z" style="fill:#fff"/><path d="M12.48,69V66.85h2.07V69Z" style="fill:#fff"/><path d="M94,25.11H91.88V23H94Z" style="fill:#fff"/><path d="M71.07,39.73H69v2.11H66.85v-6.3H69V33.4h4.22v4.23H71.07Z" style="fill:#fff"/><path d="M52.21,52.21h-2v-2h2Z" style="fill:#fff"/><path d="M58.56,71.07H56.44V66.88h2.11V62.64h2v6.3h-2Z" style="fill:#fff"/><ellipse cx="59.55" cy="57.5" rx="1.42" ry="1.5" style="fill:#fff"/><path d="M66.88,73.14H64.8v-2h2.07v2.05Z" style="fill:#fff"/><path d="M69,73.16v2H66.85l0-2H69Z" style="fill:#fff"/></g></g></g></svg>