<svg xmlns="http://www.w3.org/2000/svg" xmlns:xlink="http://www.w3.org/1999/xlink" viewBox="0 0 94.88 94.88"><defs><linearGradient id="adf36376-0d10-44f8-bae9-f9430b8f761c" x1="47.44" y1="95.46" x2="47.44" y2="0.85" gradientUnits="userSpaceOnUse"><stop offset="0" stop-color="#e1f6ff"/><stop offset="0.5" stop-color="#0014ff"/></linearGradient><linearGradient id="a7807c23-7da3-4c9c-8241-8d44385c174f" x1="47.44" y1="95.46" x2="47.44" y2="0.85" gradientUnits="userSpaceOnUse"><stop offset="0" stop-color="#36c8bf"/><stop offset="0.72" stop-color="#12a5b2"/></linearGradient></defs><g id="a73b71fd-dec0-48bc-ae81-a161bf5b4b87" data-name="Layer 2"><g id="bea51fb9-717f-4cda-bed1-68dab391e06c" data-name="Layer 2"><g id="acb8b165-457c-4a12-848d-3b4580e47984" data-name="EmblemBranding"><path d="M51.73,38.67,49,30.22,48.58,29a1.72,1.72,0,0,0-.07-.21,1.16,1.16,0,0,0-2.14,0,1.72,1.72,0,0,0-.07.21l-.41,1.24-2.74,8.45L26.47,90a47.5,47.5,0,0,0,41.94,0ZM47.44,77.42A7.6,7.6,0,1,1,55,69.82,7.6,7.6,0,0,1,47.44,77.42Z" style="fill:url(#adf36376-0d10-44f8-bae9-f9430b8f761c)"/><path d="M55,69.82a7.6,7.6,0,1,1-7.59-7.59A7.6,7.6,0,0,1,55,69.82Z" style="fill:none;stroke:#12a5b2;stroke-miterlimit:10;stroke-width:0.141550730524727px"/><path d="M94.88,47.44a47.34,47.34,0,0,1-16.52,36L59.07,24.06v0l-.27-.83h0a12.1,12.1,0,0,0-8.18-7.49,8.76,8.76,0,0,0-1.37-.29,11.64,11.64,0,0,0-3.6,0,8.76,8.76,0,0,0-1.37.29,12.13,12.13,0,0,0-8.19,7.5h0l-.26.81h0l-19.3,59.4a47.44,47.44,0,1,1,78.36-36Z" style="fill:url(#a7807c23-7da3-4c9c-8241-8d44385c174f)"/><path d="M55,69.82a7.6,7.6,0,1,1-7.59-7.59A7.6,7.6,0,0,1,55,69.82Z" style="fill:#fff"/><path d="M78.36,83.42a47.18,47.18,0,0,1-10,6.58L51.73,38.67,49,30.22,48.58,29a1.66,1.66,0,0,0-.06-.21,1.17,1.17,0,0,0-1.08-.71,1.15,1.15,0,0,0-1.07.71,1.72,1.72,0,0,0-.07.21l-.41,1.24-2.74,8.45L26.47,90a47.18,47.18,0,0,1-9.95-6.58L35.82,24h0l.26-.81h0a12.1,12.1,0,0,1,8.18-7.5,9,9,0,0,1,1.37-.29,11.64,11.64,0,0,1,3.6,0,9.14,9.14,0,0,1,1.38.29,12.11,12.11,0,0,1,8.17,7.49h0l.26.83v0Z" style="fill:#fff"/></g></g></g></svg>