<svg xmlns="http://www.w3.org/2000/svg" xmlns:xlink="http://www.w3.org/1999/xlink" viewBox="0 0 640.04 126.13"><defs><radialGradient id="a3447e3a-e851-48a0-9d43-2fe316f79dcd" cx="488.3" cy="-416.17" r="361.01" gradientTransform="translate(-78.01 276.13) scale(0.82)" gradientUnits="userSpaceOnUse"><stop offset="0" stop-color="#05d098"/><stop offset="0.72" stop-color="#36c8bf"/></radialGradient></defs><g id="be6e7d38-093a-4c67-bdee-4707d48f5cca" data-name="Layer 2"><g id="b8970a25-70dc-4e33-953b-fe88f11c0c40" data-name="Layer 3"><path id="e1300045-c41d-4d2d-9b93-1db8f638b162" data-name="Analygital" d="M117.91,102.34q0,6.41-7.5,6.4t-7.51-6.4V48.7a23.09,23.09,0,0,1,1.78-9.47,15,15,0,0,1,5.59-6.54q7.23-5.07,14.47-5.07h22q7,0,14.47,5.07t7.37,16v53.64q0,6.41-7.51,6.4t-7.51-6.4V49.9a11.65,11.65,0,0,0-2.18-6.67l.14.14q-1.78-3.21-7.24-3.21H127.19c-3.73,0-6.18,1.07-7.37,3.21a11.31,11.31,0,0,0-1.91,6.53Zm86.82,5.6a26.79,26.79,0,0,1-7.87-1.13,29.66,29.66,0,0,1-7.15-3.11l-.06,0q-6.54-4.14-6.53-15.22V81.92a22,22,0,0,1,1.93-9.54,16.18,16.18,0,0,1,5.4-6.47h-.13a26,26,0,0,1,7.07-3.4,25,25,0,0,1,7.21-1.13h23.52a6,6,0,0,0,6-6V49A9.87,9.87,0,0,0,232,42.9c-1.38-1.82-3.72-2.74-7-2.74H209.4c-3.38,0-5.72.83-7,2.47a9.08,9.08,0,0,0-1.94,5.8V49.5q0,6.95-7.47,6.94t-7.47-6.94V48.3a19.85,19.85,0,0,1,1.93-9.2,18.4,18.4,0,0,1,5.27-6.28h-.13a39,39,0,0,1,7.27-3.73,20.18,20.18,0,0,1,7.27-1.47h20.28a19.81,19.81,0,0,1,7.14,1.47,35.12,35.12,0,0,1,7.14,3.73h-.13a16.59,16.59,0,0,1,5.33,6.61,22.26,22.26,0,0,1,1.87,9.41v53.5q0,6.41-7.34,6.4a25.77,25.77,0,0,1-2.73-.13,5.47,5.47,0,0,1-2.27-.73,4.29,4.29,0,0,1-1.6-1.74,6.39,6.39,0,0,1-.6-3l-.11-23.28a6,6,0,0,0-6-5.94h-21a12,12,0,0,0-4.53.67,6.38,6.38,0,0,0-2.54,2.13,9.54,9.54,0,0,0-1.66,3.47,10,10,0,0,0-.34,2.94v5.2a6.61,6.61,0,0,0,2.07,5.27c1.38,1.2,3.75,1.8,7.14,1.8h14.94q4.93,0,4.94,6.27a7.88,7.88,0,0,1-1.2,4.47,4.18,4.18,0,0,1-3.74,1.8Zm73.52-5.46q0,6.27-7.34,6.26t-7.47-6.26V6.81q0-6.27,7.47-6.27t7.34,6.27Zm26.6,23.65c-3.27,0-5-2.09-5.18-6.27,0-4.19,1.73-6.27,5.18-6.27H311q4.89,0,6.43-2.81l2-4.93.44-1.35a2.32,2.32,0,0,0-.05-1.56L292.85,35.73l0-.07a5.72,5.72,0,0,1,.49-5.47,9.29,9.29,0,0,1,5-3.33,16.47,16.47,0,0,1,4.06-.67c2.7,0,3.76,1.64,5,4.54L318.41,57l9.37,21.88,15-47.9c.84-3.2,2.79-4.8,5.87-4.8a16,16,0,0,1,3.64.67,8.24,8.24,0,0,1,4.82,3.07A5.74,5.74,0,0,1,357.7,35q-6.29,20.42-12.79,41.09t-12.72,40.72a2.18,2.18,0,0,1-.21.47,13.81,13.81,0,0,1-2,2.78A17.62,17.62,0,0,1,326.1,123a22.26,22.26,0,0,1-5.87,2.27,33.88,33.88,0,0,1-8.11.87ZM395,97.84a23.93,23.93,0,0,1-7.31-1.2,31.36,31.36,0,0,1-7.3-3.47q-7.37-4.67-7.37-15.74V47.27a21.51,21.51,0,0,1,2-9.61,15.77,15.77,0,0,1,5.39-6.27,35.33,35.33,0,0,1,7.24-3.33,23.2,23.2,0,0,1,7.23-1.2h22.93a19.26,19.26,0,0,1,7.09,1.46,31.81,31.81,0,0,1,6.83,3.74,18.37,18.37,0,0,1,5.05,6.67,22.08,22.08,0,0,1,1.91,9.34v56.57a22.48,22.48,0,0,1-1.84,9.54,18.56,18.56,0,0,1-5.12,6.61,25.53,25.53,0,0,1-6.76,3.94,19.8,19.8,0,0,1-7.16,1.4H394.9A29.66,29.66,0,0,1,380.29,122a13.17,13.17,0,0,1-5.52-5.47,16.78,16.78,0,0,1-1.71-7.74v-1.6a5.45,5.45,0,0,1,1.78-4.27q1.77-1.6,5.59-1.6,7.65.8,7.64,5.87v1.47c0,1,.71,2,2.12,3.2s3.8,1.73,7.16,1.73h17.06q5.05,0,7.17-2.8a10.17,10.17,0,0,0,2.12-6.27V48.2a9.71,9.71,0,0,0-2.12-6.07q-2.11-2.73-7.17-2.73H397.35q-5,0-7.16,2.73a9.71,9.71,0,0,0-2.12,6.07V76.36a10.24,10.24,0,0,0,2.12,6.2c1.41,1.92,3.8,2.87,7.16,2.87h14.2q4.9,0,4.91,6.14a8.06,8.06,0,0,1-1.16,4.54,4.18,4.18,0,0,1-3.75,1.73Zm79.14-87.57a9.81,9.81,0,0,1-2.93,7.21A9.8,9.8,0,0,1,464,20.42a10,10,0,0,1-7.27-2.94,9.68,9.68,0,0,1-3-7.21,9.82,9.82,0,0,1,3-7.33A10,10,0,0,1,464,0a9.8,9.8,0,0,1,7.21,2.94A10,10,0,0,1,474.18,10.27Zm-2.8,92.07q0,6.41-7.34,6.4t-7.47-6.4V33.49q0-6.41,7.47-6.4t7.34,6.4Zm45.08-61.78A2.39,2.39,0,0,0,514.07,43V89.13a8.49,8.49,0,0,0,1.47,5.34c1,1.24,3.07,1.87,6.27,1.87h3.47q5.21,0,4.94,6.13,0,6.27-4.94,6.27h-4.4a27.64,27.64,0,0,1-8-1.13,30.58,30.58,0,0,1-7.2-3.27v.13q-6.54-4.26-6.54-15.21V43a2.39,2.39,0,0,0-2.39-2.39h-2.81q-4.81,0-5.07-6.27c0-4.18,1.68-6.27,5.07-6.27h2.81a2.39,2.39,0,0,0,2.39-2.38V13.74q0-6.4,7.61-6.4,7.34,0,7.33,6.4v11.9A2.39,2.39,0,0,0,516.46,28h8.69q5.21,0,4.93,6.27,0,6.27-4.93,6.27Zm50.06,67.38a26.79,26.79,0,0,1-7.87-1.13,29.32,29.32,0,0,1-7.11-3.09l-.1,0q-6.53-4.14-6.53-15.22V81.92a22,22,0,0,1,1.93-9.54,16.13,16.13,0,0,1,5.41-6.47h-.14a26,26,0,0,1,7.07-3.4,25,25,0,0,1,7.21-1.13h23.52a6,6,0,0,0,6-6V49a9.82,9.82,0,0,0-2.07-6.07c-1.38-1.82-3.72-2.74-7-2.74H571.19c-3.38,0-5.71.83-7,2.47a9.14,9.14,0,0,0-1.94,5.8V49.5q0,6.95-7.47,6.94t-7.47-6.94V48.3a19.85,19.85,0,0,1,1.93-9.2,18.4,18.4,0,0,1,5.27-6.28h-.13a39,39,0,0,1,7.27-3.73,20.18,20.18,0,0,1,7.27-1.47h20.29a19.81,19.81,0,0,1,7.13,1.47,35.12,35.12,0,0,1,7.14,3.73h-.13a16.7,16.7,0,0,1,5.34,6.61,22.42,22.42,0,0,1,1.86,9.41v53.5q0,6.41-7.34,6.4a25.9,25.9,0,0,1-2.73-.13,5.47,5.47,0,0,1-2.27-.73,4.29,4.29,0,0,1-1.6-1.74,6.39,6.39,0,0,1-.6-3l-.11-23.28a6,6,0,0,0-6-5.94h-21a12,12,0,0,0-4.53.67,5,5,0,0,0-2.54,2.13,13.69,13.69,0,0,0-1.53,3.54,12.94,12.94,0,0,0-.47,2.87v5.2a6.61,6.61,0,0,0,2.07,5.27q2.07,1.8,7.14,1.8H584q4.93,0,4.94,6.27a7.88,7.88,0,0,1-1.2,4.47,4.18,4.18,0,0,1-3.74,1.8ZM640,102.48q0,6.27-7.34,6.26t-7.47-6.26V6.81q0-6.27,7.47-6.27T640,6.81ZM54.61,76.56a10.5,10.5,0,1,0-10.5,10.5A10.51,10.51,0,0,0,54.61,76.56ZM87.93,98.64l-.19-.58v0L60.18,13.24v0l-.36-1.12v0A16.76,16.76,0,0,0,48.5,1.72a15.84,15.84,0,0,0-2.61-.49h0a15.71,15.71,0,0,0-3.54,0h0a15.92,15.92,0,0,0-2.6.49A16.75,16.75,0,0,0,28.41,12.1l-.36,1.1L.36,98.43A7.95,7.95,0,0,0,8,108.74a8,8,0,0,0,7.47-5.22l.15-.44,22.61-69.6,5.19-15.94,0-.14a.74.74,0,0,1,.64-.47h.12a.76.76,0,0,1,.64.46l0,.15L50,33.48l22.62,69.61.14.43a8,8,0,0,0,15.43-2.73A8.09,8.09,0,0,0,87.93,98.64Z" style="fill:url(#a3447e3a-e851-48a0-9d43-2fe316f79dcd)"/></g></g></svg>