<svg xmlns="http://www.w3.org/2000/svg" xmlns:xlink="http://www.w3.org/1999/xlink" viewBox="0 0 320.02 317.51"><defs><linearGradient id="a710cba8-d98a-4766-a212-03f9ffad88f1" x1="160.01" y1="319.46" x2="160.01" y2="2.85" gradientUnits="userSpaceOnUse"><stop offset="0" stop-color="#05d098"/><stop offset="0.72" stop-color="#36c8bf"/></linearGradient><linearGradient id="f9855ddc-8b6e-4912-99f1-c2c581de8056" x1="160.01" y1="319.46" x2="160.01" y2="2.85" gradientUnits="userSpaceOnUse"><stop offset="0" stop-color="#36c8bf"/><stop offset="0.72" stop-color="#12a5b2"/></linearGradient></defs><g id="a9ccc955-3da0-4cbe-bf71-00e5c81ef1cd" data-name="Layer 2"><g id="b7a80458-d2c8-4d23-bc4c-4a29fe555760" data-name="Layer 3"><g id="a3a378d2-b619-449b-af58-d0c44374784b" data-name="Emblem"><path d="M174.48,129.41l-9.25-28.27L163.86,97a6,6,0,0,0-.23-.72,3.94,3.94,0,0,0-7.24,0,6,6,0,0,0-.23.72l-1.37,4.15-9.25,28.27L89.28,301.2a161.52,161.52,0,0,0,141.46,0ZM160,259.07a25.42,25.42,0,1,1,25.63-25.42A25.51,25.51,0,0,1,160,259.07Z" style="fill:url(#a710cba8-d98a-4766-a212-03f9ffad88f1)"/><path d="M320,158.76a157.81,157.81,0,0,1-55.73,120.4l-65-198.63,0-.12-.9-2.76,0-.06a40.74,40.74,0,0,0-27.58-25.07,36.67,36.67,0,0,0-4.64-1,40.28,40.28,0,0,0-12.14,0,36.36,36.36,0,0,0-4.62,1,40.81,40.81,0,0,0-27.6,25.11v0l-.88,2.69,0,0L55.71,279.16A157.89,157.89,0,0,1,0,158.76C0,71.07,71.64,0,160,0S320,71.07,320,158.76Z" style="fill:url(#f9855ddc-8b6e-4912-99f1-c2c581de8056)"/></g></g></g></svg>