<svg xmlns="http://www.w3.org/2000/svg" xmlns:xlink="http://www.w3.org/1999/xlink" viewBox="0 0 94.88 94.88"><defs><linearGradient id="b78972fe-b368-4af8-894b-23697ca8ab7e" x1="47.44" y1="95.46" x2="47.44" y2="0.85" gradientUnits="userSpaceOnUse"><stop offset="0" stop-color="#ede4ff"/><stop offset="0.5" stop-color="#6528f7"/></linearGradient><linearGradient id="f1e69632-e5b7-4e44-a3b0-d694dd24835a" x1="47.44" y1="95.46" x2="47.44" y2="0.85" gradientUnits="userSpaceOnUse"><stop offset="0" stop-color="#36c8bf"/><stop offset="0.72" stop-color="#12a5b2"/></linearGradient></defs><g id="b1502097-32e2-4a0f-b038-60790ceb5951" data-name="Layer 2"><g id="b6978002-34db-450a-82bf-41e2075b6d5c" data-name="Layer 2"><g id="b3edc6c6-4c25-49f5-b06f-0202cc611680" data-name="EmblemMarketing"><path d="M51.73,38.67,49,30.22,48.58,29a1.72,1.72,0,0,0-.07-.21,1.16,1.16,0,0,0-2.14,0,1.72,1.72,0,0,0-.07.21l-.41,1.24-2.74,8.45L26.47,90a47.5,47.5,0,0,0,41.94,0ZM47.44,77.42A7.6,7.6,0,1,1,55,69.82,7.6,7.6,0,0,1,47.44,77.42Z" style="fill:url(#b78972fe-b368-4af8-894b-23697ca8ab7e)"/><path d="M55,69.82a7.6,7.6,0,1,1-7.59-7.59A7.6,7.6,0,0,1,55,69.82Z" style="fill:none;stroke:#12a5b2;stroke-miterlimit:10;stroke-width:0.141550730524727px"/><path d="M94.88,47.44a47.34,47.34,0,0,1-16.52,36L59.07,24.06v0l-.27-.83h0a12.1,12.1,0,0,0-8.18-7.49,8.76,8.76,0,0,0-1.37-.29,11.64,11.64,0,0,0-3.6,0,8.76,8.76,0,0,0-1.37.29,12.13,12.13,0,0,0-8.19,7.5h0l-.26.81h0l-19.3,59.4a47.44,47.44,0,1,1,78.36-36Z" style="fill:url(#f1e69632-e5b7-4e44-a3b0-d694dd24835a)"/><path d="M55,69.82a7.6,7.6,0,1,1-7.59-7.59A7.6,7.6,0,0,1,55,69.82Z" style="fill:#fff"/><path d="M78.36,83.42a47.18,47.18,0,0,1-10,6.58L51.73,38.67,49,30.22,48.58,29a1.66,1.66,0,0,0-.06-.21,1.17,1.17,0,0,0-1.08-.71,1.15,1.15,0,0,0-1.07.71,1.72,1.72,0,0,0-.07.21l-.41,1.24-2.74,8.45L26.47,90a47.18,47.18,0,0,1-9.95-6.58L35.82,24h0l.26-.81h0a12.1,12.1,0,0,1,8.18-7.5,9,9,0,0,1,1.37-.29,11.64,11.64,0,0,1,3.6,0,9.14,9.14,0,0,1,1.38.29,12.11,12.11,0,0,1,8.17,7.49h0l.26.83v0Z" style="fill:#fff"/></g></g></g></svg>