<svg xmlns="http://www.w3.org/2000/svg" xmlns:xlink="http://www.w3.org/1999/xlink" viewBox="0 0 640.04 500"><defs><radialGradient id="bb77e6d0-cadd-4bef-aa81-01e3e8f848be" cx="322" cy="-231.94" r="361.01" gradientTransform="translate(58.09 499.22) scale(0.82)" gradientUnits="userSpaceOnUse"><stop offset="0" stop-color="#05d098"/><stop offset="0.72" stop-color="#36c8bf"/></radialGradient><linearGradient id="b18ba1ce-65d2-4e10-bc98-8063a2bb0c6a" x1="320.02" y1="319.46" x2="320.02" y2="2.85" gradientTransform="matrix(1, 0, 0, 1, 0, 0)" xlink:href="#bb77e6d0-cadd-4bef-aa81-01e3e8f848be"/><linearGradient id="f94414be-1808-461c-8013-44e1c4dd7ecf" x1="320.02" y1="319.46" x2="320.02" y2="2.85" gradientUnits="userSpaceOnUse"><stop offset="0" stop-color="#36c8bf"/><stop offset="0.72" stop-color="#12a5b2"/></linearGradient></defs><g id="f160251f-672b-4e7e-a12c-f75b6740d1dd" data-name="Layer 2"><g id="a1241345-06d3-4161-9f63-1a2d7f65222a" data-name="Logo Main"><g id="a3aebd20-bcf7-4f9e-bb1c-4f7b58e33707" data-name="Logo"><path id="f859f300-ae2e-4763-93f1-f0a032aa9613" data-name="Analygital" d="M117.91,476.21q0,6.41-7.5,6.41t-7.51-6.41V422.58a23.14,23.14,0,0,1,1.78-9.48,15.07,15.07,0,0,1,5.59-6.54q7.23-5.07,14.47-5.07h22q7,0,14.47,5.07t7.37,16v53.63q0,6.41-7.51,6.41t-7.51-6.41V423.78a11.68,11.68,0,0,0-2.18-6.68l.14.14c-1.19-2.14-3.6-3.2-7.24-3.2H127.19c-3.73,0-6.18,1.06-7.37,3.2a11.36,11.36,0,0,0-1.91,6.54Zm86.82,5.61a26.8,26.8,0,0,1-7.87-1.14,29.62,29.62,0,0,1-7.15-3.1l-.06,0q-6.54-4.14-6.53-15.21V455.8a22,22,0,0,1,1.93-9.54,16.12,16.12,0,0,1,5.4-6.47h-.13a26.05,26.05,0,0,1,7.07-3.41,25,25,0,0,1,7.21-1.13h23.52a6,6,0,0,0,6-6v-6.45a9.87,9.87,0,0,0-2.06-6.07Q230,414,225,414H209.4c-3.38,0-5.72.82-7,2.47a9.06,9.06,0,0,0-1.94,5.8v1.07q0,6.93-7.47,6.93t-7.47-6.93v-1.2a19.86,19.86,0,0,1,1.93-9.21,18.46,18.46,0,0,1,5.27-6.27h-.13a38.47,38.47,0,0,1,7.27-3.74,20.18,20.18,0,0,1,7.27-1.47h20.28a19.81,19.81,0,0,1,7.14,1.47,34.67,34.67,0,0,1,7.14,3.74h-.13a16.56,16.56,0,0,1,5.33,6.6,22.29,22.29,0,0,1,1.87,9.41v53.5q0,6.41-7.34,6.41c-1,0-1.89-.05-2.73-.13a5.63,5.63,0,0,1-2.27-.74,4.33,4.33,0,0,1-1.6-1.73,6.46,6.46,0,0,1-.6-3l-.11-23.28a6,6,0,0,0-6-5.94h-21a12.21,12.21,0,0,0-4.53.67,6.41,6.41,0,0,0-2.54,2.14,9.43,9.43,0,0,0-1.66,3.46,10,10,0,0,0-.34,2.94v5.2a6.6,6.6,0,0,0,2.07,5.27c1.38,1.2,3.75,1.81,7.14,1.81h14.94q4.93,0,4.94,6.26A7.9,7.9,0,0,1,226,480a4.18,4.18,0,0,1-3.74,1.8Zm73.52-5.47q0,6.27-7.34,6.27t-7.47-6.27V380.68q0-6.27,7.47-6.27t7.34,6.27ZM304.85,500c-3.27,0-5-2.09-5.18-6.27q0-6.27,5.18-6.27H311c3.26,0,5.4-.94,6.43-2.8l2-4.94.44-1.34a2.35,2.35,0,0,0-.05-1.57l-26.93-67.2,0-.07a5.71,5.71,0,0,1,.49-5.47,9.24,9.24,0,0,1,5-3.34,17,17,0,0,1,4.06-.67c2.7,0,3.76,1.64,5,4.54l11.05,26.28,9.37,21.89,15-47.9c.84-3.21,2.79-4.81,5.87-4.81a16.62,16.62,0,0,1,3.64.67,8.29,8.29,0,0,1,4.82,3.07,5.74,5.74,0,0,1,.63,5.07q-6.29,20.42-12.79,41.09t-12.72,40.72a2,2,0,0,1-.21.47,13.54,13.54,0,0,1-2,2.78,17.62,17.62,0,0,1-3.84,2.93,21.92,21.92,0,0,1-5.87,2.27,33.88,33.88,0,0,1-8.11.87ZM395,471.71a23.93,23.93,0,0,1-7.31-1.2,31,31,0,0,1-7.3-3.47q-7.37-4.67-7.37-15.74V421.14a21.46,21.46,0,0,1,2-9.6,15.7,15.7,0,0,1,5.39-6.27,35.38,35.38,0,0,1,7.24-3.34,23.2,23.2,0,0,1,7.23-1.2h22.93a19.08,19.08,0,0,1,7.09,1.47,31.77,31.77,0,0,1,6.83,3.73,18.32,18.32,0,0,1,5.05,6.68,22,22,0,0,1,1.91,9.33v56.58a22.55,22.55,0,0,1-1.84,9.54,18.62,18.62,0,0,1-5.12,6.6A25.26,25.26,0,0,1,425,498.6a19.8,19.8,0,0,1-7.16,1.4H394.9a29.66,29.66,0,0,1-14.61-4.14,13.17,13.17,0,0,1-5.52-5.47,16.71,16.71,0,0,1-1.71-7.73v-1.61a5.45,5.45,0,0,1,1.78-4.27q1.77-1.61,5.59-1.6,7.65.79,7.64,5.87v1.47c0,1,.71,2.05,2.12,3.2s3.8,1.74,7.16,1.74h17.06c3.37,0,5.76-.94,7.17-2.8a10.17,10.17,0,0,0,2.12-6.28v-56.3a9.69,9.69,0,0,0-2.12-6.07q-2.11-2.75-7.17-2.74H397.35q-5,0-7.16,2.74a9.69,9.69,0,0,0-2.12,6.07v28.15a10.27,10.27,0,0,0,2.12,6.21q2.12,2.87,7.16,2.86h14.2q4.9,0,4.91,6.14A8.06,8.06,0,0,1,415.3,470a4.18,4.18,0,0,1-3.75,1.73Zm79.14-87.56A10,10,0,0,1,464,394.29a10,10,0,0,1-7.27-2.94,9.66,9.66,0,0,1-3-7.2,9.85,9.85,0,0,1,3-7.34,10,10,0,0,1,7.27-2.94,9.8,9.8,0,0,1,7.21,2.94A10,10,0,0,1,474.18,384.15Zm-2.8,92.06q0,6.41-7.34,6.41t-7.47-6.41V407.37q0-6.4,7.47-6.41t7.34,6.41Zm45.08-61.77a2.38,2.38,0,0,0-2.39,2.38V463a8.45,8.45,0,0,0,1.47,5.34q1.47,1.88,6.27,1.87h3.47q5.21,0,4.94,6.14,0,6.27-4.94,6.27h-4.4a27.3,27.3,0,0,1-8-1.14,30.18,30.18,0,0,1-7.2-3.27v.14q-6.54-4.28-6.54-15.21V416.82a2.38,2.38,0,0,0-2.39-2.38h-2.81q-4.81,0-5.07-6.28c0-4.17,1.68-6.26,5.07-6.26h2.81a2.39,2.39,0,0,0,2.39-2.39V387.62q0-6.4,7.61-6.41,7.34,0,7.33,6.41v11.89a2.39,2.39,0,0,0,2.39,2.39h8.69q5.21,0,4.93,6.26,0,6.29-4.93,6.28Zm50.06,67.38a26.8,26.8,0,0,1-7.87-1.14,29.28,29.28,0,0,1-7.11-3.08l-.1-.05q-6.53-4.14-6.53-15.21V455.8a22,22,0,0,1,1.93-9.54,16.06,16.06,0,0,1,5.41-6.47h-.14a26.05,26.05,0,0,1,7.07-3.41,25,25,0,0,1,7.21-1.13h23.52a6,6,0,0,0,6-6v-6.45a9.82,9.82,0,0,0-2.07-6.07q-2.07-2.73-7-2.73H571.19q-5.07,0-7,2.47a9.12,9.12,0,0,0-1.94,5.8v1.07q0,6.93-7.47,6.93t-7.47-6.93v-1.2a19.86,19.86,0,0,1,1.93-9.21,18.46,18.46,0,0,1,5.27-6.27h-.13a38.47,38.47,0,0,1,7.27-3.74,20.18,20.18,0,0,1,7.27-1.47h20.29a19.81,19.81,0,0,1,7.13,1.47,34.67,34.67,0,0,1,7.14,3.74h-.13a16.67,16.67,0,0,1,5.34,6.6,22.45,22.45,0,0,1,1.86,9.41v53.5q0,6.41-7.34,6.41c-1,0-1.89-.05-2.73-.13a5.63,5.63,0,0,1-2.27-.74,4.33,4.33,0,0,1-1.6-1.73,6.46,6.46,0,0,1-.6-3l-.11-23.28a6,6,0,0,0-6-5.94h-21a12.25,12.25,0,0,0-4.53.67,5,5,0,0,0-2.54,2.14,13.66,13.66,0,0,0-1.53,3.53,12.94,12.94,0,0,0-.47,2.87v5.2a6.6,6.6,0,0,0,2.07,5.27c1.38,1.2,3.76,1.81,7.14,1.81H584q4.93,0,4.94,6.26a7.9,7.9,0,0,1-1.2,4.48,4.18,4.18,0,0,1-3.74,1.8ZM640,476.35q0,6.27-7.34,6.27t-7.47-6.27V380.68q0-6.27,7.47-6.27t7.34,6.27ZM54.61,450.43a10.5,10.5,0,1,0-10.5,10.5A10.5,10.5,0,0,0,54.61,450.43Zm33.32,22.08-.19-.58v0l-27.55-84.8h0L59.81,386v0A16.73,16.73,0,0,0,48.5,375.6a15.85,15.85,0,0,0-2.61-.5h0a17.45,17.45,0,0,0-3.54,0h0a15.93,15.93,0,0,0-2.6.5A16.73,16.73,0,0,0,28.41,386l-.36,1.09L.36,472.3A8,8,0,0,0,8,482.62a8,8,0,0,0,7.47-5.22l.15-.45,22.61-69.59,5.19-15.95,0-.14a.72.72,0,0,1,.64-.46h.12a.74.74,0,0,1,.64.45l0,.16L50,407.36,72.66,477l.14.43a8,8,0,0,0,15.43-2.74A8.09,8.09,0,0,0,87.93,472.51Z" style="fill:url(#bb77e6d0-cadd-4bef-aa81-01e3e8f848be)"/><g id="fb99080f-5dea-47de-ac73-ac683e6f3cba" data-name="Emblem"><path d="M334.49,129.41l-9.25-28.27L323.87,97a6,6,0,0,0-.23-.72,3.94,3.94,0,0,0-7.24,0,6,6,0,0,0-.23.72l-1.37,4.15-9.25,28.27L249.29,301.2a161.52,161.52,0,0,0,141.46,0ZM320,259.07a25.42,25.42,0,1,1,25.63-25.42A25.51,25.51,0,0,1,320,259.07Z" style="fill:url(#b18ba1ce-65d2-4e10-bc98-8063a2bb0c6a)"/><path d="M480,158.76a157.81,157.81,0,0,1-55.73,120.4l-65-198.63,0-.12-.9-2.76,0-.06a40.74,40.74,0,0,0-27.58-25.07,36.67,36.67,0,0,0-4.64-1,40.28,40.28,0,0,0-12.14,0,36.36,36.36,0,0,0-4.62,1,40.81,40.81,0,0,0-27.6,25.11v0l-.88,2.69,0,0-65.1,198.78A157.89,157.89,0,0,1,160,158.76C160,71.07,231.65,0,320,0S480,71.07,480,158.76Z" style="fill:url(#f94414be-1808-461c-8013-44e1c4dd7ecf)"/></g></g></g></g></svg>